<svg xmlns="http://www.w3.org/2000/svg" width="128" height="128" viewBox="0 0 128 128">
<defs><linearGradient id="main" x1="0" y1="0" x2="0" y2="1"><stop offset="0" stop-color="#8FD3E6" stop-opacity="1.0"/><stop offset="1" stop-color="#2A5F7C" stop-opacity="1.0"/></linearGradient><radialGradient id="discGlow" cx="0.5" cy="0.22" r="0.9"><stop offset="0" stop-color="#FFFFFF" stop-opacity="0.1"/><stop offset="1" stop-color="#000000" stop-opacity="0.0"/></radialGradient><radialGradient id="discShade" cx="0.5" cy="0.9" r="0.7"><stop offset="0" stop-color="#000000" stop-opacity="0.0"/><stop offset="1" stop-color="#000000" stop-opacity="0.45"/></radialGradient><filter id="rough" x="-25%" y="-25%" width="150%" height="150%"><feTurbulence type="fractalNoise" baseFrequency="0.05" numOctaves="3" seed="28" result="n"/><feDisplacementMap in="SourceGraphic" in2="n" scale="2.5" xChannelSelector="R" yChannelSelector="G"/></filter></defs>
<circle cx="64" cy="64" r="58" fill="#04050a" opacity="0.55"/><circle cx="64" cy="64" r="54" fill="#14150f"/><circle cx="64" cy="64" r="54" fill="url(#discGlow)"/><circle cx="64" cy="64" r="54" fill="url(#discShade)"/><circle cx="64" cy="64" r="54" fill="none" stroke="#8FD3E6" stroke-opacity="0.45" stroke-width="2.5"/><circle cx="64" cy="64" r="48" fill="none" stroke="#8FD3E6" stroke-opacity="0.16" stroke-width="1"/><path d="M22,46 C38,30 52,62 68,46 C84,30 98,62 112,46" fill="none" stroke="url(#main)" stroke-width="9" stroke-linecap="round" filter="url(#rough)"/><path d="M22,72 C38,56 52,88 68,72 C84,56 98,88 112,72" fill="none" stroke="url(#main)" stroke-width="9" stroke-linecap="round" opacity="0.8"/><path d="M28,96 C44,84 56,106 72,96 C86,86 98,104 108,96" fill="none" stroke="url(#main)" stroke-width="6" stroke-linecap="round" opacity="0.55"/>
</svg>
