<svg xmlns="http://www.w3.org/2000/svg" width="128" height="128" viewBox="0 0 128 128">
<defs><linearGradient id="main" x1="0" y1="0" x2="0" y2="1"><stop offset="0" stop-color="#D2BC8E" stop-opacity="1.0"/><stop offset="1" stop-color="#7E6A3E" stop-opacity="1.0"/></linearGradient><radialGradient id="discGlow" cx="0.5" cy="0.22" r="0.9"><stop offset="0" stop-color="#FFFFFF" stop-opacity="0.1"/><stop offset="1" stop-color="#000000" stop-opacity="0.0"/></radialGradient><radialGradient id="discShade" cx="0.5" cy="0.9" r="0.7"><stop offset="0" stop-color="#000000" stop-opacity="0.0"/><stop offset="1" stop-color="#000000" stop-opacity="0.45"/></radialGradient><filter id="rough" x="-25%" y="-25%" width="150%" height="150%"><feTurbulence type="fractalNoise" baseFrequency="0.05" numOctaves="3" seed="28" result="n"/><feDisplacementMap in="SourceGraphic" in2="n" scale="2.5" xChannelSelector="R" yChannelSelector="G"/></filter></defs>
<circle cx="64" cy="64" r="58" fill="#04050a" opacity="0.55"/><circle cx="64" cy="64" r="54" fill="#14150f"/><circle cx="64" cy="64" r="54" fill="url(#discGlow)"/><circle cx="64" cy="64" r="54" fill="url(#discShade)"/><circle cx="64" cy="64" r="54" fill="none" stroke="#D2BC8E" stroke-opacity="0.45" stroke-width="2.5"/><circle cx="64" cy="64" r="48" fill="none" stroke="#D2BC8E" stroke-opacity="0.16" stroke-width="1"/><path d="M18,104 L50,50 L74,86 L92,60 L114,104 Z" fill="url(#main)" filter="url(#rough)"/><path d="M18,104 L50,50 L74,86 L92,60 L114,104 Z" fill="none" stroke="#E8D7AE" stroke-opacity="0.6" stroke-width="2"/><rect x="18" y="106" width="96" height="4" rx="2" fill="#D2BC8E" opacity="0.75"/><rect x="34" y="114" width="64" height="3" rx="1.5" fill="#D2BC8E" opacity="0.5"/>
</svg>
