<svg xmlns="http://www.w3.org/2000/svg" width="96" height="96" viewBox="0 0 96 96">
<defs><linearGradient id="main" x1="0" y1="0" x2="0" y2="1"><stop offset="0" stop-color="#D9705F" stop-opacity="1.0"/><stop offset="1" stop-color="#7A1F1A" stop-opacity="1.0"/></linearGradient><radialGradient id="discGlow" cx="0.5" cy="0.22" r="0.9"><stop offset="0" stop-color="#FFFFFF" stop-opacity="0.1"/><stop offset="1" stop-color="#000000" stop-opacity="0.0"/></radialGradient><radialGradient id="discShade" cx="0.5" cy="0.9" r="0.7"><stop offset="0" stop-color="#000000" stop-opacity="0.0"/><stop offset="1" stop-color="#000000" stop-opacity="0.45"/></radialGradient><filter id="rough" x="-25%" y="-25%" width="150%" height="150%"><feTurbulence type="fractalNoise" baseFrequency="0.05" numOctaves="3" seed="71" result="n"/><feDisplacementMap in="SourceGraphic" in2="n" scale="2.5" xChannelSelector="R" yChannelSelector="G"/></filter></defs>
<path d="M10,6 H86 L86,44 L48,90 L10,44 Z" fill="#04050a" opacity="0.6"/><path d="M13,9 H83 L83,42 L48,84 L13,42 Z" fill="#14150f"/><path d="M13,9 H83 L83,42 L48,84 L13,42 Z" fill="url(#discGlow)"/><path d="M13,9 H83 L83,42 L48,84 L13,42 Z" fill="none" stroke="#B63A31" stroke-opacity="0.5" stroke-width="2.5"/><path d="M48,16 L60,40 V66 L48,80 L36,66 V40 Z" fill="url(#main)" filter="url(#rough)"/><path d="M48,16 L60,40 V66 L48,80 L36,66 V40 Z" fill="none" stroke="#D9705F" stroke-width="2" stroke-opacity="0.8"/><rect x="41" y="80" width="14" height="5" rx="2" fill="#B63A31" opacity="0.85"/><path d="M48,22 V74" stroke="#2A0A08" stroke-opacity="0.5" stroke-width="2.5"/>
</svg>
