<svg xmlns="http://www.w3.org/2000/svg" width="128" height="128" viewBox="0 0 128 128">
<defs><linearGradient id="main" x1="0" y1="0" x2="0" y2="1"><stop offset="0" stop-color="#E0786C" stop-opacity="1.0"/><stop offset="1" stop-color="#7A1F1A" stop-opacity="1.0"/></linearGradient><radialGradient id="discGlow" cx="0.5" cy="0.22" r="0.9"><stop offset="0" stop-color="#FFFFFF" stop-opacity="0.1"/><stop offset="1" stop-color="#000000" stop-opacity="0.0"/></radialGradient><radialGradient id="discShade" cx="0.5" cy="0.9" r="0.7"><stop offset="0" stop-color="#000000" stop-opacity="0.0"/><stop offset="1" stop-color="#000000" stop-opacity="0.45"/></radialGradient><filter id="rough" x="-25%" y="-25%" width="150%" height="150%"><feTurbulence type="fractalNoise" baseFrequency="0.05" numOctaves="3" seed="51" result="n"/><feDisplacementMap in="SourceGraphic" in2="n" scale="2.5" xChannelSelector="R" yChannelSelector="G"/></filter></defs>
<rect x="4" y="4" width="120" height="120" rx="18" fill="#04050a" opacity="0.5"/><rect x="7" y="7" width="114" height="114" rx="15" fill="#14150f"/><rect x="7" y="7" width="114" height="114" rx="15" fill="url(#discGlow)"/><rect x="7" y="7" width="114" height="114" rx="15" fill="url(#discShade)"/><rect x="7" y="7" width="114" height="114" rx="15" fill="none" stroke="#E0786C" stroke-opacity="0.45" stroke-width="2.5"/><rect x="13" y="13" width="102" height="102" rx="11" fill="none" stroke="#E0786C" stroke-opacity="0.16" stroke-width="1"/><circle cx="64" cy="64" r="36" fill="none" stroke="url(#main)" stroke-width="9" filter="url(#rough)"/><circle cx="64" cy="64" r="20" fill="none" stroke="url(#main)" stroke-width="5" opacity="0.8"/><circle cx="64" cy="64" r="8" fill="url(#main)"/><path d="M64,14 V34 M64,94 V114 M14,64 H34 M94,64 H114" stroke="url(#main)" stroke-width="7" stroke-linecap="round"/>
</svg>
