<svg xmlns="http://www.w3.org/2000/svg" width="256" height="384" viewBox="0 0 256 384">
<defs><linearGradient id="backG" x1="0" y1="0" x2="0" y2="1"><stop offset="0" stop-color="#28271f" stop-opacity="1.0"/><stop offset="1" stop-color="#111110" stop-opacity="1.0"/></linearGradient><radialGradient id="backGlow" cx="0.5" cy="0.42" r="0.8"><stop offset="0" stop-color="#C8BFA8" stop-opacity="0.16"/><stop offset="1" stop-color="#000000" stop-opacity="0.0"/></radialGradient><filter id="paper" x="0" y="0" width="100%" height="100%"><feTurbulence type="fractalNoise" baseFrequency="1.15" numOctaves="4" seed="83" stitchTiles="stitch" result="n"/><feColorMatrix in="n" type="saturate" values="0"/></filter><filter id="rough" x="-25%" y="-25%" width="150%" height="150%"><feTurbulence type="fractalNoise" baseFrequency="0.03" numOctaves="3" seed="19" result="n"/><feDisplacementMap in="SourceGraphic" in2="n" scale="3" xChannelSelector="R" yChannelSelector="G"/></filter><filter id="backInk" x="-50%" y="-50%" width="200%" height="200%"><feGaussianBlur stdDeviation="14"/></filter></defs>
<rect x="3" y="4" width="250" height="378" rx="16" fill="#04050a" opacity="0.85"/><rect x="6" y="6" width="244" height="372" rx="14" fill="url(#backG)"/><rect x="6" y="6" width="244" height="372" rx="14" fill="url(#backGlow)"/><rect x="6" y="6" width="244" height="372" rx="14" filter="url(#paper)" opacity="0.5" style="mix-blend-mode:overlay"/><g filter="url(#backInk)"><ellipse cx="24" cy="30" rx="76" ry="56" fill="#04050a" opacity="0.75"/><ellipse cx="236" cy="350" rx="84" ry="62" fill="#04050a" opacity="0.7"/><ellipse cx="240" cy="24" rx="56" ry="44" fill="#04050a" opacity="0.45"/><ellipse cx="16" cy="356" rx="62" ry="46" fill="#04050a" opacity="0.5"/></g><rect x="6.9" y="6.9" width="242.2" height="370.2" rx="14" fill="none" stroke="#C2AA72" stroke-opacity="0.52" stroke-width="1.7" filter="url(#rough)"/><rect x="20" y="20" width="216" height="344" rx="8" fill="none" stroke="#C2AA72" stroke-opacity="0.22" stroke-width="1"/><circle cx="128" cy="192" r="82" fill="none" stroke="#C2AA72" stroke-opacity="0.22" stroke-width="1.5"/><circle cx="128" cy="192" r="74" fill="none" stroke="#B63A31" stroke-opacity="0.14" stroke-width="1"/><rect x="60" y="126" width="136" height="8" rx="3" fill="#C2AA72" opacity="0.6"/><rect x="60" y="148" width="136" height="8" rx="3" fill="#C2AA72" opacity="0.6"/><rect x="60" y="170" width="136" height="8" rx="3" fill="#C2AA72" opacity="0.6"/><rect x="60" y="192" width="136" height="8" rx="3" fill="#C2AA72" opacity="0.6"/><rect x="60" y="214" width="136" height="8" rx="3" fill="#C2AA72" opacity="0.6"/><rect x="60" y="236" width="136" height="8" rx="3" fill="#C2AA72" opacity="0.6"/><rect x="34" y="28" width="24" height="3" fill="#B63A31" opacity="0.75"/><rect x="198" y="28" width="24" height="3" fill="#5EC8C0" opacity="0.65"/><path d="M16,16 L42,16 L42,20 L20,20 L20,42 L16,42 Z" fill="#C2AA72" opacity="0.45"/><path d="M240,16 L214,16 L214,20 L236,20 L236,42 L240,42 Z" fill="#C2AA72" opacity="0.45"/><path d="M16,368 L42,368 L42,364 L20,364 L20,342 L16,342 Z" fill="#C2AA72" opacity="0.32"/><path d="M240,368 L214,368 L214,364 L236,364 L236,342 L240,342 Z" fill="#C2AA72" opacity="0.32"/>
</svg>
