<svg xmlns="http://www.w3.org/2000/svg" width="1920" height="1080" viewBox="0 0 1920 1080">
<defs><radialGradient id="base" cx="0.5" cy="0.34" r="0.94"><stop offset="0" stop-color="#37342b" stop-opacity="1.0"/><stop offset="1" stop-color="#06070a" stop-opacity="1.0"/></radialGradient><radialGradient id="accent" cx="0.5" cy="0.5" r="0.6"><stop offset="0" stop-color="#C2AA72" stop-opacity="0.2"/><stop offset="1" stop-color="#C2AA72" stop-opacity="0.0"/></radialGradient><radialGradient id="vig" cx="0.5" cy="0.5" r="0.82"><stop offset="0" stop-color="#070808" stop-opacity="0.0"/><stop offset="1" stop-color="#070808" stop-opacity="0.92"/></radialGradient><filter id="paper" x="0" y="0" width="100%" height="100%"><feTurbulence type="fractalNoise" baseFrequency="0.8" numOctaves="4" seed="137" stitchTiles="stitch" result="n"/><feColorMatrix in="n" type="saturate" values="0"/></filter><filter id="soft" x="-60%" y="-60%" width="220%" height="220%"><feGaussianBlur stdDeviation="22"/></filter><filter id="mist" x="-60%" y="-60%" width="220%" height="220%"><feGaussianBlur stdDeviation="60"/></filter><filter id="rough" x="-25%" y="-25%" width="150%" height="150%"><feTurbulence type="fractalNoise" baseFrequency="0.01" numOctaves="3" seed="144" result="n"/><feDisplacementMap in="SourceGraphic" in2="n" scale="16" xChannelSelector="R" yChannelSelector="G"/></filter><pattern id="grid" width="64" height="64" patternUnits="userSpaceOnUse"><rect width="64" height="64" fill="none" stroke="#C8BFA8" stroke-opacity="0.045" stroke-width="1"/></pattern><pattern id="scan" width="8" height="8" patternUnits="userSpaceOnUse"><rect y="3" width="8" height="1" fill="#5EC8C0" opacity="0.05"/></pattern></defs>
<rect width="1920" height="1080" fill="url(#base)"/><ellipse cx="1460" cy="880" rx="900" ry="600" fill="url(#accent)"/><path d="M0,612 L96,566 L192,604 L288,548 L384,592 L480,536 L576,586 L672,528 L768,580 L864,524 L960,574 L1056,520 L1152,572 L1248,532 L1344,592 L1440,540 L1536,596 L1632,548 L1728,600 L1824,556 L1920,606 L1920,1080 L0,1080 Z" fill="#2C2D28" opacity="0.9" filter="url(#mist)"/><path d="M0,706 L128,650 L256,694 L384,632 L512,684 L640,624 L768,678 L896,626 L1024,682 L1152,634 L1280,690 L1408,640 L1536,696 L1664,648 L1792,700 L1920,656 L1920,1080 L0,1080 Z" fill="#191A16" opacity="0.92" filter="url(#soft)"/><path d="M0,842 L160,790 L320,832 L480,772 L640,822 L800,764 L960,816 L1120,768 L1280,822 L1440,778 L1600,828 L1760,786 L1920,834 L1920,1080 L0,1080 Z" fill="#0A0B0D" opacity="0.9" filter="url(#soft)"/><g filter="url(#mist)" opacity="0.6"><ellipse cx="420" cy="600" rx="460" ry="66" fill="#0A0B0D"/><ellipse cx="1360" cy="560" rx="520" ry="74" fill="#0A0B0D"/><ellipse cx="900" cy="660" rx="620" ry="58" fill="#0A0B0D" opacity="0.8"/></g><g filter="url(#soft)" opacity="0.9"><path d="M120,900 C420,780 360,520 700,440 C1020,364 1180,300 1800,180" fill="none" stroke="#04050a" stroke-width="170" stroke-linecap="round"/><path d="M120,900 C420,780 360,520 700,440 C1020,364 1180,300 1800,180" fill="none" stroke="#C2AA72" stroke-width="4" stroke-opacity="0.2"/></g><circle cx="700" cy="440" r="13" fill="#B63A31" opacity="0.55"/><circle cx="1400" cy="266" r="11" fill="#B63A31" opacity="0.4"/><circle cx="130" cy="892" r="11" fill="#5EC8C0" opacity="0.4"/><rect width="1920" height="1080" fill="url(#grid)"/><rect width="1920" height="1080" fill="url(#scan)"/><rect width="1920" height="1080" filter="url(#paper)" opacity="0.4" style="mix-blend-mode:overlay"/><rect width="1920" height="1080" fill="url(#vig)"/>
</svg>
